<svg xmlns="http://www.w3.org/2000/svg" viewBox="0 0 362.23 146.99"><defs><style>.cls-1,.cls-2{fill:#231f20;}.cls-2{stroke:#231f20;stroke-miterlimit:10;stroke-width:1.36px;}</style></defs><g id="Layer_2" data-name="Layer 2"><g id="Layer_1-2" data-name="Layer 1"><path class="cls-1" d="M105,1a1.45,1.45,0,0,1,1.64,1.64V8.74A1.47,1.47,0,0,1,105,10.38H91.81A1.47,1.47,0,0,0,90.17,12v1.75a1.49,1.49,0,0,0,1.64,1.64h8.47a1.45,1.45,0,0,1,1.64,1.64v6.12a1.47,1.47,0,0,1-1.64,1.64H91.81a1.47,1.47,0,0,0-1.64,1.64V28.2a1.49,1.49,0,0,0,1.64,1.64H105a1.45,1.45,0,0,1,1.64,1.64V37.6A1.45,1.45,0,0,1,105,39.24h-23a1.49,1.49,0,0,1-1.64-1.64v-35A1.47,1.47,0,0,1,82.08,1Z"/><path class="cls-1" d="M109.24,13.28C109.24,9.67,110,0,123,0c11.64,0,13.44,7.82,13.66,12a1.43,1.43,0,0,1-1.2,1.53l-6.07,1.37a1.82,1.82,0,0,1-2.18-1.69c-.28-2.41-1.26-3.83-4.21-3.83-4,0-4.32,2.57-4.32,6.78v7.87c0,4.2.27,6.77,4.32,6.77,3,0,3.82-1.42,4.15-3.93a1.71,1.71,0,0,1,2.13-1.59l6.18,1.37a1.45,1.45,0,0,1,1.2,1.58c-.22,4.16-2,12-13.66,12-12.95,0-13.72-9.67-13.72-13.28Z"/><path class="cls-1" d="M146.73,1a1.45,1.45,0,0,1,1.64,1.64V24.05c0,4.2.27,6.77,4.32,6.77S157,28.25,157,24.05V2.62A1.47,1.47,0,0,1,158.65,1h6.12a1.45,1.45,0,0,1,1.64,1.64V26.94c0,3.61-.77,13.28-13.72,13.28S139,30.55,139,26.94V2.62A1.47,1.47,0,0,1,140.61,1Z"/><path class="cls-1" d="M197,37.38c0,1.2-.55,1.86-1.64,1.86H189.2a1.47,1.47,0,0,1-1.64-1.64V32.84a1.45,1.45,0,0,0-1.64-1.63h-4.7a1.47,1.47,0,0,0-1.64,1.63V37.6a1.45,1.45,0,0,1-1.64,1.64h-6.12c-1,0-1.64-.66-1.64-1.86V14.21C170.18,7.32,171.27,0,183.57,0S197,7.32,197,14.21Zm-9.4-23.17c0-2.62-.39-3.94-4-3.94s-4,1.32-4,3.94v6a1.5,1.5,0,0,0,1.64,1.64h4.7a1.52,1.52,0,0,0,1.64-1.7Z"/><path class="cls-1" d="M214.88,1c10.28,0,13.66,4.16,13.66,13.12v12c0,9-3.38,13.17-13.66,13.17H202.7a1.49,1.49,0,0,1-1.64-1.64V2.68A1.52,1.52,0,0,1,202.7,1Zm.17,28.86c2.62,0,3.93-.44,3.93-3.72v-12c0-3.39-1.31-3.72-3.93-3.72h-3A1.47,1.47,0,0,0,210.46,12V28.2a1.49,1.49,0,0,0,1.64,1.64Z"/><path class="cls-1" d="M259.26,26.94c0,3.61-.77,13.28-13.72,13.28s-13.72-9.67-13.72-13.28V13.28c0-3.61.77-13.28,13.72-13.28s13.72,9.67,13.72,13.28Zm-9.4-10.76c0-4.21-.27-6.78-4.32-6.78s-4.32,2.57-4.32,6.78v7.87c0,4.2.28,6.77,4.32,6.77s4.32-2.57,4.32-6.77Z"/><path class="cls-1" d="M291.89,36.29a1.94,1.94,0,0,1-1.81,3h-6.23a1.33,1.33,0,0,1-1.25-.77l-5.69-11a.54.54,0,0,0-.44-.27h-2.18a1.64,1.64,0,0,0-1.7,1.69v8.63a1.64,1.64,0,0,1-1.69,1.7h-6.12a1.64,1.64,0,0,1-1.7-1.7V2.68a1.64,1.64,0,0,1,1.7-1.7h12c9.72,0,13.66,4.16,13.66,13.12,0,5.08-1.26,8.63-4.15,10.71a.58.58,0,0,0-.17.71Zm-17.6-25.91a1.64,1.64,0,0,0-1.7,1.7v4a1.64,1.64,0,0,0,1.7,1.7h2.79c2.62,0,3.93-.33,3.93-3.72s-1.31-3.72-3.93-3.72Z"/><path class="cls-2" d="M24.55,42.75c0,11.68-5.69,16.71-12,16.71S.68,54.43.68,42.75,6.26,26,12.57,26,24.55,31,24.55,42.75Zm-12,14.06c2.4,0,4.33-2.76,4.33-14.06S15,28.62,12.57,28.62,8.33,31.33,8.33,42.75,10.15,56.81,12.57,56.81Z"/><path class="cls-2" d="M47.53,29.84c0,5.22-3.49,8.52-8.59,8.52S30.35,35,30.35,29.84s3.85-8.42,8.59-8.42S47.53,24.63,47.53,29.84Zm-11.91,0c0,4.68,1.12,6.76,3.32,6.76s3.33-2.08,3.33-6.76-1.16-6.72-3.33-6.72S35.62,25.26,35.62,29.87Z"/><path class="cls-1" d="M105,60.79a1.45,1.45,0,0,1,1.64,1.64v6.12A1.47,1.47,0,0,1,105,70.19H91.27a1.47,1.47,0,0,0-1.64,1.64v1.75a1.49,1.49,0,0,0,1.64,1.63h9a1.45,1.45,0,0,1,1.64,1.64V83a1.47,1.47,0,0,1-1.64,1.64h-9a1.47,1.47,0,0,0-1.64,1.64V97.4A1.47,1.47,0,0,1,88,99H81.54A1.49,1.49,0,0,1,79.9,97.4v-35a1.47,1.47,0,0,1,1.64-1.64Z"/><path class="cls-1" d="M116.52,60.79a1.45,1.45,0,0,1,1.64,1.64v35A1.47,1.47,0,0,1,116.52,99h-6a1.49,1.49,0,0,1-1.64-1.64v-35a1.47,1.47,0,0,1,1.64-1.64Z"/><path class="cls-1" d="M130.29,60.79a1.45,1.45,0,0,1,1.64,1.64V88a1.49,1.49,0,0,0,1.64,1.64h12.18a1.45,1.45,0,0,1,1.64,1.64V97.4A1.45,1.45,0,0,1,145.75,99H124.17a1.49,1.49,0,0,1-1.64-1.64v-35a1.47,1.47,0,0,1,1.64-1.64Z"/><path class="cls-1" d="M162.64,60.79a1.67,1.67,0,0,1,1.75,1.47l3.88,15.91c.11.54.55.54.66,0l3.88-15.91a1.67,1.67,0,0,1,1.75-1.47h11.31a1.45,1.45,0,0,1,1.64,1.64v35A1.47,1.47,0,0,1,185.87,99h-6.12a1.49,1.49,0,0,1-1.64-1.64V75.87a.3.3,0,0,0-.6-.05l-5.3,21.8A1.69,1.69,0,0,1,170.4,99h-3.6A1.69,1.69,0,0,1,165,97.62l-5.3-21.8a.3.3,0,0,0-.6.05V97.4A1.47,1.47,0,0,1,157.45,99h-6.12a1.47,1.47,0,0,1-1.64-1.64v-35a1.45,1.45,0,0,1,1.64-1.64Z"/><path class="cls-1" d="M79.35,120c0-3.6.77-13.28,13.72-13.28,11.64,0,13.45,7.82,13.66,12a1.43,1.43,0,0,1-1.2,1.53l-6.06,1.36A1.83,1.83,0,0,1,97.28,120c-.27-2.41-1.26-3.83-4.21-3.83-4,0-4.32,2.57-4.32,6.78v7.87c0,4.21.28,6.78,4.32,6.78,3,0,3.83-1.43,4.15-3.94a1.7,1.7,0,0,1,2.14-1.58l6.17,1.36a1.45,1.45,0,0,1,1.2,1.59c-.21,4.15-2,12-13.66,12-12.95,0-13.72-9.68-13.72-13.28Z"/><path class="cls-1" d="M137.39,133.71c0,3.6-.76,13.28-13.71,13.28S110,137.31,110,133.71V120c0-3.6.76-13.28,13.72-13.28s13.71,9.68,13.71,13.28ZM128,122.94c0-4.21-.27-6.78-4.31-6.78s-4.32,2.57-4.32,6.78v7.87c0,4.21.27,6.78,4.32,6.78S128,135,128,130.81Z"/><path class="cls-1" d="M153.08,107.75a1.67,1.67,0,0,1,1.75,1.47l3.88,15.91c.11.54.54.54.65,0l3.88-15.91a1.67,1.67,0,0,1,1.75-1.47h11.32a1.44,1.44,0,0,1,1.63,1.64v35a1.47,1.47,0,0,1-1.63,1.64h-6.13a1.5,1.5,0,0,1-1.64-1.64V122.83a.3.3,0,0,0-.6,0l-5.3,21.8a1.68,1.68,0,0,1-1.8,1.42h-3.61a1.68,1.68,0,0,1-1.8-1.42l-5.3-21.8a.3.3,0,0,0-.6,0v21.53a1.47,1.47,0,0,1-1.64,1.64h-6.12a1.47,1.47,0,0,1-1.64-1.64v-35a1.44,1.44,0,0,1,1.64-1.64Z"/><path class="cls-1" d="M190,107.75a1.45,1.45,0,0,1,1.64,1.64v35A1.47,1.47,0,0,1,190,146h-6a1.49,1.49,0,0,1-1.64-1.64v-35a1.47,1.47,0,0,1,1.64-1.64Z"/><path class="cls-1" d="M215.05,121.3c-1.09.22-1.64-.27-1.8-1.37-.38-2.24-2.19-3.66-4.75-3.66-2.14,0-3.45,1.26-3.23,2.52.77,4.26,18,4.15,18,16.72,0,1.64-1.86,11.31-14.81,11.31-11.48,0-13.94-7.54-14.21-11.8a1.6,1.6,0,0,1,1.42-1.81l6.17-1.36c1.1-.22,1.7.27,1.81,1.42a4.48,4.48,0,0,0,4.81,4.15c2.67,0,4.64-1.58,4.31-3.06-1-4.64-17.49-3.61-17.49-16.18,0-1.63.93-11.31,13.18-11.31,11.25,0,13.88,7.33,14.2,11.26a1.59,1.59,0,0,1-1.42,1.8Z"/><path class="cls-1" d="M246.31,121.3c-1.09.22-1.64-.27-1.8-1.37-.38-2.24-2.19-3.66-4.75-3.66-2.14,0-3.45,1.26-3.23,2.52.77,4.26,18,4.15,18,16.72,0,1.64-1.86,11.31-14.81,11.31-11.48,0-13.94-7.54-14.21-11.8a1.6,1.6,0,0,1,1.42-1.81l6.17-1.36c1.1-.22,1.7.27,1.81,1.42a4.48,4.48,0,0,0,4.81,4.15c2.67,0,4.64-1.58,4.31-3.06-1-4.64-17.48-3.61-17.48-16.18-.06-1.63.92-11.31,13.17-11.31,11.25,0,13.88,7.33,14.2,11.26a1.59,1.59,0,0,1-1.42,1.8Z"/><path class="cls-1" d="M265.06,107.75a1.45,1.45,0,0,1,1.64,1.64v35a1.47,1.47,0,0,1-1.64,1.64h-6a1.49,1.49,0,0,1-1.64-1.64v-35a1.47,1.47,0,0,1,1.64-1.64Z"/><path class="cls-1" d="M298,133.71c0,3.6-.77,13.28-13.72,13.28s-13.71-9.68-13.71-13.28V120c0-3.6.76-13.28,13.71-13.28S298,116.44,298,120Zm-9.4-10.77c0-4.21-.27-6.78-4.32-6.78s-4.31,2.57-4.31,6.78v7.87c0,4.21.27,6.78,4.31,6.78s4.32-2.57,4.32-6.78Z"/><path class="cls-1" d="M311.46,107.75a1.88,1.88,0,0,1,1.91,1.25l7.43,18.2c.22.49.66.38.66-.16V109.39a1.47,1.47,0,0,1,1.64-1.64h6.12a1.45,1.45,0,0,1,1.64,1.64v35a1.47,1.47,0,0,1-1.64,1.64h-8a1.9,1.9,0,0,1-1.92-1.26l-7.43-18.19c-.22-.5-.65-.39-.65.16v17.65a1.47,1.47,0,0,1-1.64,1.64h-6.12a1.49,1.49,0,0,1-1.64-1.64v-35a1.47,1.47,0,0,1,1.64-1.64Z"/><rect class="cls-1" x="45.09" y="47.02" width="317.14" height="4.78"/></g></g></svg>