<svg xmlns="http://www.w3.org/2000/svg" viewBox="0 0 48.21 39.4"><defs><style>.cls-1{fill:#231f20;stroke:#231f20;stroke-miterlimit:10;stroke-width:1.36px;}</style></defs><g id="Layer_2" data-name="Layer 2"><g id="Layer_1-2" data-name="Layer 1"><path class="cls-1" d="M24.55,22c0,11.67-5.69,16.7-12,16.7S.68,33.69.68,22,6.26,5.27,12.57,5.27,24.55,10.29,24.55,22Zm-12,14.05c2.4,0,4.33-2.76,4.33-14S15,7.88,12.57,7.88,8.33,10.6,8.33,22,10.15,36.07,12.57,36.07Z"/><path class="cls-1" d="M47.53,9.1c0,5.22-3.49,8.52-8.59,8.52s-8.59-3.38-8.59-8.52S34.2.68,38.94.68,47.53,3.89,47.53,9.1Zm-11.91,0c0,4.68,1.12,6.76,3.32,6.76s3.33-2.08,3.33-6.76-1.16-6.72-3.33-6.72S35.62,4.52,35.62,9.13Z"/></g></g></svg>