<svg xmlns="http://www.w3.org/2000/svg" viewBox="0 0 255.81 32.63"><defs><style>.cls-1{fill:#fff;}</style></defs><g id="Layer_2" data-name="Layer 2"><g id="Capa_1" data-name="Capa 1"><path class="cls-1" d="M44.9.49V12h-2V.49Z"/><path class="cls-1" d="M49.75,12h-2V3.31h2V4.67a4.44,4.44,0,0,1,.46-.59,3.57,3.57,0,0,1,.59-.49,3.34,3.34,0,0,1,.74-.34,3.06,3.06,0,0,1,.9-.12,2.87,2.87,0,0,1,2.27.9,3.48,3.48,0,0,1,.8,2.42V12h-2V7.06A2.37,2.37,0,0,0,53,5.49,1.73,1.73,0,0,0,51.68,5a1.88,1.88,0,0,0-1.4.56,2.23,2.23,0,0,0-.53,1.58Z"/><path class="cls-1" d="M63.83,10.6a2.31,2.31,0,0,1-.67.84,3.1,3.1,0,0,1-1,.51,4.62,4.62,0,0,1-1.26.17A5.79,5.79,0,0,1,59,11.79a6,6,0,0,1-1.78-1l.89-1.35a5.52,5.52,0,0,0,1.43.8,4,4,0,0,0,1.4.27,1.72,1.72,0,0,0,1-.25.79.79,0,0,0,.35-.68v0a.64.64,0,0,0-.15-.42,1.46,1.46,0,0,0-.43-.32,3.21,3.21,0,0,0-.62-.25l-.73-.22q-.48-.15-1-.33a3.61,3.61,0,0,1-.87-.46,2.53,2.53,0,0,1-.63-.71,2.05,2.05,0,0,1-.24-1v0a2.64,2.64,0,0,1,.23-1.1,2.43,2.43,0,0,1,.66-.83,3,3,0,0,1,1-.53,4,4,0,0,1,1.21-.18,5.67,5.67,0,0,1,1.65.26,6.09,6.09,0,0,1,1.52.72L63.1,5.55A6.49,6.49,0,0,0,61.84,5a3.61,3.61,0,0,0-1.18-.23,1.48,1.48,0,0,0-.9.25.75.75,0,0,0-.32.62v0a.58.58,0,0,0,.17.4,1.91,1.91,0,0,0,.43.31,4.81,4.81,0,0,0,.63.26l.72.24c.32.1.64.21,1,.34a3.75,3.75,0,0,1,.86.48,2.46,2.46,0,0,1,.63.7,1.86,1.86,0,0,1,.25,1v0A2.65,2.65,0,0,1,63.83,10.6Z"/><path class="cls-1" d="M68.34,9.25a1.05,1.05,0,0,0,.28.83,1.11,1.11,0,0,0,.78.26,2.66,2.66,0,0,0,1.23-.3v1.62a3.29,3.29,0,0,1-.8.33,3.88,3.88,0,0,1-2,0,2.12,2.12,0,0,1-.8-.42,2,2,0,0,1-.52-.78,3.55,3.55,0,0,1-.18-1.21V5h-1.1V3.31h1.1V.93h2V3.31h2.33V5H68.34Z"/><path class="cls-1" d="M72.68,2V.1h2.15V2Zm.08,10V3.31h2V12Z"/><path class="cls-1" d="M79.74,9.25a1.05,1.05,0,0,0,.28.83,1.12,1.12,0,0,0,.79.26A2.65,2.65,0,0,0,82,10v1.62a3.29,3.29,0,0,1-.8.33,3.88,3.88,0,0,1-2,0,2.12,2.12,0,0,1-.8-.42,2,2,0,0,1-.52-.78,3.55,3.55,0,0,1-.18-1.21V5h-1.1V3.31h1.1V.93h2V3.31h2.33V5H79.74Z"/><path class="cls-1" d="M89.72,3.31h2V12h-2V10.6a4.22,4.22,0,0,1-1.07,1.08,2.67,2.67,0,0,1-1.63.46,2.87,2.87,0,0,1-2.27-.9A3.54,3.54,0,0,1,84,8.81V3.31h2v4.9a2.28,2.28,0,0,0,.48,1.56,1.69,1.69,0,0,0,1.35.55,1.86,1.86,0,0,0,1.4-.56,2.21,2.21,0,0,0,.54-1.58Z"/><path class="cls-1" d="M96.61,9.25a1.09,1.09,0,0,0,.28.83,1.14,1.14,0,0,0,.79.26,2.72,2.72,0,0,0,1.23-.3v1.62a3.36,3.36,0,0,1-.81.33,3.6,3.6,0,0,1-1,.12,3.5,3.5,0,0,1-1-.14,2,2,0,0,1-.8-.42,1.88,1.88,0,0,1-.52-.78,3.31,3.31,0,0,1-.19-1.21V5H93.52V3.31h1.09V.93h2V3.31h2.33V5H96.61Z"/><path class="cls-1" d="M109.07,9.39a4.7,4.7,0,0,1-1,1.43,4.49,4.49,0,0,1-1.46,1,4.73,4.73,0,0,1-1.85.36A4.59,4.59,0,0,1,103,11.8a4.41,4.41,0,0,1-1.46-1,4.5,4.5,0,0,1-1-1.43,4.39,4.39,0,0,1-.34-1.74,4.49,4.49,0,0,1,.35-1.76,4.56,4.56,0,0,1,1-1.45,4.49,4.49,0,0,1,1.46-1,4.61,4.61,0,0,1,1.84-.36,4.82,4.82,0,0,1,1.84.35,4.6,4.6,0,0,1,1.46,1,4.39,4.39,0,0,1,1,1.43,4.64,4.64,0,0,1,0,3.51Zm-1.84-2.81a2.82,2.82,0,0,0-.55-.89,2.49,2.49,0,0,0-.83-.6,2.45,2.45,0,0,0-1.06-.22,2.5,2.5,0,0,0-1.07.22,2.42,2.42,0,0,0-.82.59,2.7,2.7,0,0,0-.52.88,3.12,3.12,0,0,0-.18,1.07,3,3,0,0,0,.19,1.09,2.83,2.83,0,0,0,.55.9,2.56,2.56,0,0,0,1.88.81,2.51,2.51,0,0,0,1.08-.22,2.33,2.33,0,0,0,.82-.59,2.7,2.7,0,0,0,.52-.88,3.12,3.12,0,0,0,.18-1.07A3,3,0,0,0,107.23,6.58Z"/><path class="cls-1" d="M122.85,12V10.52a4.42,4.42,0,0,1-1.18,1.14,3.09,3.09,0,0,1-1.76.48,3.85,3.85,0,0,1-1.49-.3,3.74,3.74,0,0,1-1.27-.87,4.54,4.54,0,0,1-.9-1.42,5,5,0,0,1-.34-1.92,5.13,5.13,0,0,1,.33-1.91,4.52,4.52,0,0,1,.89-1.42,3.66,3.66,0,0,1,1.29-.88,4,4,0,0,1,1.49-.29,3.15,3.15,0,0,1,1.77.46,4.61,4.61,0,0,1,1.17,1.06V0h2V12Zm-.17-5.47a2.89,2.89,0,0,0-.54-.88,2.32,2.32,0,0,0-.8-.56,2.28,2.28,0,0,0-1-.2,2.38,2.38,0,0,0-1,.19,2.26,2.26,0,0,0-.79.55,2.56,2.56,0,0,0-.54.87,3.34,3.34,0,0,0-.19,1.17,3.28,3.28,0,0,0,.19,1.16,2.56,2.56,0,0,0,.54.87,2.28,2.28,0,0,0,.79.56,2.39,2.39,0,0,0,1,.2,2.43,2.43,0,0,0,1.75-.76,2.89,2.89,0,0,0,.54-.88,3,3,0,0,0,.21-1.15A3,3,0,0,0,122.68,6.49Z"/><path class="cls-1" d="M129.69,10a2.46,2.46,0,0,0,1.63.56,2.84,2.84,0,0,0,1.28-.26,4,4,0,0,0,1.07-.77l1.16,1a4.83,4.83,0,0,1-1.48,1.18,4.41,4.41,0,0,1-2.06.44,4.65,4.65,0,0,1-1.75-.32,4.21,4.21,0,0,1-1.4-.92,4.27,4.27,0,0,1-.95-1.42,4.9,4.9,0,0,1-.34-1.84,4.81,4.81,0,0,1,.31-1.75A4.39,4.39,0,0,1,128,4.46a4.26,4.26,0,0,1,1.33-1,4.37,4.37,0,0,1,3.52,0,3.7,3.7,0,0,1,1.29,1A4.6,4.6,0,0,1,135,6a6.2,6.2,0,0,1,.26,1.79,2.35,2.35,0,0,1,0,.26c0,.09,0,.18,0,.28h-6.36A2.62,2.62,0,0,0,129.69,10ZM133.26,7a3.71,3.71,0,0,0-.22-.9,2.4,2.4,0,0,0-.44-.72,2.24,2.24,0,0,0-.66-.48,2.07,2.07,0,0,0-.88-.18,2,2,0,0,0-1.52.63A2.85,2.85,0,0,0,128.82,7Z"/><path class="cls-1" d="M150.88,2.31h-6.52V5.47h5.78V7.29h-5.78V12h-2V.49h8.52Z"/><path class="cls-1" d="M161,9.39a4.7,4.7,0,0,1-1,1.43,4.6,4.6,0,0,1-1.46,1,4.73,4.73,0,0,1-1.85.36,4.59,4.59,0,0,1-1.83-.35,4.41,4.41,0,0,1-1.46-1,4.5,4.5,0,0,1-1-1.43,4.39,4.39,0,0,1-.34-1.74,4.49,4.49,0,0,1,.35-1.76,4.56,4.56,0,0,1,1-1.45,4.49,4.49,0,0,1,1.46-1,4.61,4.61,0,0,1,1.84-.36,4.82,4.82,0,0,1,1.84.35,4.6,4.6,0,0,1,1.46,1,4.39,4.39,0,0,1,1,1.43,4.64,4.64,0,0,1,0,3.51Zm-1.84-2.81a3,3,0,0,0-.55-.89,2.49,2.49,0,0,0-.83-.6,2.69,2.69,0,0,0-2.13,0,2.33,2.33,0,0,0-.82.59,2.53,2.53,0,0,0-.52.88,3.12,3.12,0,0,0-.18,1.07,3,3,0,0,0,.19,1.09,2.66,2.66,0,0,0,.55.9,2.56,2.56,0,0,0,1.88.81,2.51,2.51,0,0,0,1.08-.22,2.42,2.42,0,0,0,.82-.59,2.7,2.7,0,0,0,.52-.88,3.12,3.12,0,0,0,.18-1.07A3,3,0,0,0,159.19,6.58Z"/><path class="cls-1" d="M171.84,3.55a3.26,3.26,0,0,1,1.69-.42,2.91,2.91,0,0,1,2.23.86,3.43,3.43,0,0,1,.81,2.45V12h-2V7.06a2.39,2.39,0,0,0-.46-1.57A1.58,1.58,0,0,0,172.82,5a1.77,1.77,0,0,0-1.33.54,2.28,2.28,0,0,0-.51,1.6V12h-2V7a2.3,2.3,0,0,0-.46-1.55A1.58,1.58,0,0,0,167.24,5a1.7,1.7,0,0,0-1.34.57,2.29,2.29,0,0,0-.51,1.58V12h-2V3.31h2V4.63c.15-.19.3-.38.46-.56a3.9,3.9,0,0,1,.57-.48,3,3,0,0,1,.72-.34,3,3,0,0,1,.89-.12,2.84,2.84,0,0,1,1.58.42,2.75,2.75,0,0,1,1,1.12A4.12,4.12,0,0,1,171.84,3.55Z"/><path class="cls-1" d="M181.32,10a2.46,2.46,0,0,0,1.63.56,2.81,2.81,0,0,0,1.28-.26,4,4,0,0,0,1.07-.77l1.16,1A4.83,4.83,0,0,1,185,11.71a4.41,4.41,0,0,1-2.06.44,4.56,4.56,0,0,1-1.74-.32,4.36,4.36,0,0,1-1.41-.92,4.24,4.24,0,0,1-.94-1.42,4.71,4.71,0,0,1-.35-1.84,5,5,0,0,1,.31-1.75,4.39,4.39,0,0,1,.88-1.44,4.19,4.19,0,0,1,1.34-1,4.35,4.35,0,0,1,3.51,0,3.7,3.7,0,0,1,1.29,1A4.24,4.24,0,0,1,186.59,6a5.87,5.87,0,0,1,.26,1.79v.26l0,.28h-6.36A2.62,2.62,0,0,0,181.32,10ZM184.89,7a3.71,3.71,0,0,0-.22-.9,2.4,2.4,0,0,0-.44-.72,2,2,0,0,0-.66-.48,2.07,2.07,0,0,0-.88-.18,2,2,0,0,0-1.51.63A2.8,2.8,0,0,0,180.45,7Z"/><path class="cls-1" d="M190.85,12h-2V3.31h2V4.67a5.46,5.46,0,0,1,.46-.59,3.57,3.57,0,0,1,.59-.49,3.57,3.57,0,0,1,.74-.34,3.11,3.11,0,0,1,.9-.12,2.87,2.87,0,0,1,2.27.9,3.48,3.48,0,0,1,.8,2.42V12h-2V7.06a2.32,2.32,0,0,0-.48-1.57A1.72,1.72,0,0,0,192.78,5a1.84,1.84,0,0,0-1.39.56,2.19,2.19,0,0,0-.54,1.58Z"/><path class="cls-1" d="M201.42,9.25a1.09,1.09,0,0,0,.27.83,1.14,1.14,0,0,0,.79.26,2.66,2.66,0,0,0,1.23-.3v1.62a3.29,3.29,0,0,1-.8.33,3.73,3.73,0,0,1-1,.12,3.55,3.55,0,0,1-1-.14,2,2,0,0,1-.8-.42,1.88,1.88,0,0,1-.52-.78,3.55,3.55,0,0,1-.18-1.21V5h-1.1V3.31h1.1V.93h2V3.31h2.32V5h-2.32Z"/><path class="cls-1" d="M213.87,9.39a4.42,4.42,0,0,1-2.43,2.4,4.69,4.69,0,0,1-1.85.36,4.59,4.59,0,0,1-1.83-.35,4.41,4.41,0,0,1-1.46-1,4.64,4.64,0,0,1-1-1.43A4.4,4.4,0,0,1,205,7.67a4.49,4.49,0,0,1,.35-1.76,4.46,4.46,0,0,1,2.43-2.42,4.65,4.65,0,0,1,1.84-.36,4.79,4.79,0,0,1,1.84.35,4.49,4.49,0,0,1,1.46,1,4.39,4.39,0,0,1,1,1.43,4.47,4.47,0,0,1,.34,1.75A4.32,4.32,0,0,1,213.87,9.39ZM212,6.58a3,3,0,0,0-.54-.89,2.6,2.6,0,0,0-.83-.6,2.71,2.71,0,0,0-2.14,0,2.42,2.42,0,0,0-.82.59,2.7,2.7,0,0,0-.52.88A3.12,3.12,0,0,0,207,7.63a3,3,0,0,0,.2,1.09,2.8,2.8,0,0,0,.54.9,2.56,2.56,0,0,0,1.88.81,2.51,2.51,0,0,0,1.08-.22,2.46,2.46,0,0,0,.83-.59,2.88,2.88,0,0,0,.52-.88,3.12,3.12,0,0,0,.18-1.07A3,3,0,0,0,212,6.58Z"/><path class="cls-1" d="M5.88,30V28.89a3.63,3.63,0,0,1-1.13.89,3.58,3.58,0,0,1-1.67.36A4.1,4.1,0,0,1,1.9,30a3,3,0,0,1-1-.51,2.55,2.55,0,0,1-.68-.84A2.47,2.47,0,0,1,0,27.47v0a2.79,2.79,0,0,1,.26-1.23A2.47,2.47,0,0,1,1,25.34a3.35,3.35,0,0,1,1.11-.52,5.73,5.73,0,0,1,1.41-.17,7.28,7.28,0,0,1,1.33.1A7.14,7.14,0,0,1,5.9,25V24.8a1.76,1.76,0,0,0-.55-1.38A2.38,2.38,0,0,0,3.77,23a5.72,5.72,0,0,0-1.31.14,8.1,8.1,0,0,0-1.17.4L.75,21.9a10.05,10.05,0,0,1,1.48-.53,7.37,7.37,0,0,1,1.82-.19,3.83,3.83,0,0,1,2.86,1,3.64,3.64,0,0,1,.94,2.69V30Zm0-3.67A5.34,5.34,0,0,0,5,26,6.4,6.4,0,0,0,4,25.94a2.48,2.48,0,0,0-1.46.37,1.17,1.17,0,0,0-.52,1v0a1.07,1.07,0,0,0,.48.95,2.06,2.06,0,0,0,1.19.33,3.33,3.33,0,0,0,.91-.13,2.33,2.33,0,0,0,.72-.37,1.71,1.71,0,0,0,.49-.58,1.64,1.64,0,0,0,.17-.74Z"/><path class="cls-1" d="M15.23,30V18h2V30Z"/><path class="cls-1" d="M25.1,30V28.89a3.8,3.8,0,0,1-1.14.89,3.53,3.53,0,0,1-1.67.36A4.21,4.21,0,0,1,21.11,30a3.09,3.09,0,0,1-1-.51,2.52,2.52,0,0,1-.67-.84,2.47,2.47,0,0,1-.26-1.15v0a2.65,2.65,0,0,1,.27-1.23,2.27,2.27,0,0,1,.73-.87,3.35,3.35,0,0,1,1.11-.52,5.65,5.65,0,0,1,1.4-.17,7.21,7.21,0,0,1,1.33.1,7.14,7.14,0,0,1,1.06.26V24.8a1.72,1.72,0,0,0-.55-1.38A2.37,2.37,0,0,0,23,23a5.72,5.72,0,0,0-1.31.14,8,8,0,0,0-1.16.4L20,21.9a9.94,9.94,0,0,1,1.47-.53,7.37,7.37,0,0,1,1.82-.19,3.86,3.86,0,0,1,2.87,1,3.68,3.68,0,0,1,.93,2.69V30Zm0-3.67a5.08,5.08,0,0,0-.89-.25,6.31,6.31,0,0,0-1.09-.1,2.48,2.48,0,0,0-1.46.37,1.17,1.17,0,0,0-.52,1v0a1.07,1.07,0,0,0,.48.95,2.08,2.08,0,0,0,1.19.33,3.28,3.28,0,0,0,.91-.13,2.39,2.39,0,0,0,.73-.37,1.58,1.58,0,0,0,.48-.58,1.52,1.52,0,0,0,.17-.74Z"/><path class="cls-1" d="M43.61,29a6.44,6.44,0,0,1-1,.64,5.64,5.64,0,0,1-1.22.41,7.34,7.34,0,0,1-1.46.13,5.94,5.94,0,0,1-2.33-.45,5.79,5.79,0,0,1-1.84-1.26,5.66,5.66,0,0,1-1.22-1.87,6,6,0,0,1-.45-2.33,6.13,6.13,0,0,1,.44-2.31A5.85,5.85,0,0,1,35.71,20a5.71,5.71,0,0,1,1.87-1.28A6,6,0,0,1,40,18.29a7,7,0,0,1,1.43.14,5.92,5.92,0,0,1,1.19.36,5.76,5.76,0,0,1,1,.57,9.77,9.77,0,0,1,.87.72l-1.3,1.49a6.47,6.47,0,0,0-1.46-1A3.79,3.79,0,0,0,40,20.15a3.47,3.47,0,0,0-1.51.32,3.75,3.75,0,0,0-1.21.86,3.84,3.84,0,0,0-.78,1.29,4.36,4.36,0,0,0-.28,1.59,4.45,4.45,0,0,0,.28,1.6,3.89,3.89,0,0,0,.78,1.3,3.64,3.64,0,0,0,1.21.87A3.47,3.47,0,0,0,40,28.3a3.74,3.74,0,0,0,1.8-.4,6.9,6.9,0,0,0,1.49-1.09l1.3,1.31A7.37,7.37,0,0,1,43.61,29Z"/><path class="cls-1" d="M48.42,30h-2V21.31h2v2a3.74,3.74,0,0,1,1.16-1.57,2.73,2.73,0,0,1,1.9-.54v2.09h-.11a3.09,3.09,0,0,0-1.2.22,2.48,2.48,0,0,0-.93.63,3.14,3.14,0,0,0-.61,1.08,4.85,4.85,0,0,0-.21,1.5Z"/><path class="cls-1" d="M55.25,28a2.49,2.49,0,0,0,1.64.56,2.84,2.84,0,0,0,1.28-.26,4,4,0,0,0,1.06-.77l1.17,1a4.75,4.75,0,0,1-1.49,1.18,4.37,4.37,0,0,1-2,.44,4.58,4.58,0,0,1-1.75-.32,4.36,4.36,0,0,1-1.41-.92,4.24,4.24,0,0,1-.94-1.42,4.71,4.71,0,0,1-.34-1.84,4.81,4.81,0,0,1,.31-1.75,4.55,4.55,0,0,1,.87-1.44,4.3,4.3,0,0,1,1.34-1,4.35,4.35,0,0,1,3.51,0,3.83,3.83,0,0,1,1.3,1A4.6,4.6,0,0,1,60.53,24a6.2,6.2,0,0,1,.26,1.79,2.35,2.35,0,0,1,0,.26c0,.09,0,.18,0,.28H54.4A2.61,2.61,0,0,0,55.25,28ZM58.82,25a3.29,3.29,0,0,0-.21-.9,2.62,2.62,0,0,0-.44-.72,2.16,2.16,0,0,0-.67-.48,2.16,2.16,0,0,0-2.39.45A2.86,2.86,0,0,0,54.38,25Z"/><path class="cls-1" d="M68.08,30V28.89a3.75,3.75,0,0,1-1.13.89,3.58,3.58,0,0,1-1.67.36A4.1,4.1,0,0,1,64.1,30a3.15,3.15,0,0,1-1-.51,2.52,2.52,0,0,1-.67-.84,2.47,2.47,0,0,1-.25-1.15v0a2.65,2.65,0,0,1,.26-1.23,2.37,2.37,0,0,1,.73-.87,3.35,3.35,0,0,1,1.11-.52,5.65,5.65,0,0,1,1.4-.17,7.33,7.33,0,0,1,1.34.1,7,7,0,0,1,1,.26V24.8a1.72,1.72,0,0,0-.55-1.38A2.37,2.37,0,0,0,66,23a5.78,5.78,0,0,0-1.31.14,8,8,0,0,0-1.16.4L63,21.9a9.94,9.94,0,0,1,1.47-.53,7.42,7.42,0,0,1,1.82-.19,3.84,3.84,0,0,1,2.87,1A3.68,3.68,0,0,1,70,24.83V30Zm0-3.67a5.21,5.21,0,0,0-.9-.25,6.22,6.22,0,0,0-1.09-.1,2.45,2.45,0,0,0-1.45.37,1.17,1.17,0,0,0-.53,1v0a1.06,1.06,0,0,0,.49.95,2,2,0,0,0,1.18.33,3.28,3.28,0,0,0,.91-.13,2.39,2.39,0,0,0,.73-.37,1.58,1.58,0,0,0,.48-.58,1.53,1.53,0,0,0,.18-.74Z"/><path class="cls-1" d="M74.73,27.25a1.05,1.05,0,0,0,.28.83,1.1,1.1,0,0,0,.78.26A2.66,2.66,0,0,0,77,28v1.62a3.29,3.29,0,0,1-.8.33,3.88,3.88,0,0,1-2,0,2,2,0,0,1-.8-.42,2,2,0,0,1-.52-.78,3.55,3.55,0,0,1-.18-1.21V23h-1.1V21.31h1.1V18.93h2v2.38h2.32V23H74.73Z"/><path class="cls-1" d="M79.07,20V18.1h2.14V20Zm.08,10V21.31h2V30Z"/><path class="cls-1" d="M89.7,21.31h2.08L88.24,30H86.46L82.9,21.31H85l2.33,6.35Z"/><path class="cls-1" d="M93.5,20V18.1h2.15V20Zm.08,10V21.31h2V30Z"/><path class="cls-1" d="M104.65,30V28.52a4.42,4.42,0,0,1-1.18,1.14,3.06,3.06,0,0,1-1.76.48,3.8,3.8,0,0,1-1.48-.3A3.69,3.69,0,0,1,99,29a4.54,4.54,0,0,1-.9-1.42,5,5,0,0,1-.34-1.92A5.13,5.13,0,0,1,98,23.72a4.37,4.37,0,0,1,.9-1.42,3.62,3.62,0,0,1,1.28-.88,4,4,0,0,1,1.49-.29,3.15,3.15,0,0,1,1.77.46,4.61,4.61,0,0,1,1.17,1.06V18h2V30Zm-.17-5.47a2.71,2.71,0,0,0-.54-.88,2.32,2.32,0,0,0-.8-.56,2.25,2.25,0,0,0-1-.2,2.38,2.38,0,0,0-1,.19,2.35,2.35,0,0,0-.79.55,2.56,2.56,0,0,0-.54.87,3.34,3.34,0,0,0-.19,1.17,3.28,3.28,0,0,0,.19,1.16,2.56,2.56,0,0,0,.54.87,2.39,2.39,0,0,0,1.75.76,2.42,2.42,0,0,0,1-.2,2.46,2.46,0,0,0,.8-.56,2.71,2.71,0,0,0,.54-.88,3.23,3.23,0,0,0,0-2.29Z"/><path class="cls-1" d="M114.42,30V28.89a3.75,3.75,0,0,1-1.13.89,3.58,3.58,0,0,1-1.67.36,4.1,4.1,0,0,1-1.18-.17,3.15,3.15,0,0,1-1-.51,2.52,2.52,0,0,1-.67-.84,2.47,2.47,0,0,1-.25-1.15v0a2.65,2.65,0,0,1,.26-1.23,2.37,2.37,0,0,1,.73-.87,3.35,3.35,0,0,1,1.11-.52,5.65,5.65,0,0,1,1.4-.17,7.33,7.33,0,0,1,1.34.1,7,7,0,0,1,1.05.26V24.8a1.75,1.75,0,0,0-.54-1.38A2.41,2.41,0,0,0,112.3,23a5.78,5.78,0,0,0-1.31.14,8,8,0,0,0-1.16.4l-.54-1.59a9.94,9.94,0,0,1,1.47-.53,7.42,7.42,0,0,1,1.82-.19,3.84,3.84,0,0,1,2.87,1,3.68,3.68,0,0,1,.93,2.69V30Zm0-3.67a5.21,5.21,0,0,0-.9-.25,6.22,6.22,0,0,0-1.09-.1,2.45,2.45,0,0,0-1.45.37,1.17,1.17,0,0,0-.53,1v0a1.06,1.06,0,0,0,.49.95,2,2,0,0,0,1.18.33,3.28,3.28,0,0,0,.91-.13,2.39,2.39,0,0,0,.73-.37,1.58,1.58,0,0,0,.48-.58,1.53,1.53,0,0,0,.18-.74Z"/><path class="cls-1" d="M125.25,30V28.52a4.62,4.62,0,0,1-1.19,1.14,3.06,3.06,0,0,1-1.76.48,3.8,3.8,0,0,1-1.48-.3,3.69,3.69,0,0,1-1.28-.87,4.54,4.54,0,0,1-.9-1.42,5,5,0,0,1-.34-1.92,5.13,5.13,0,0,1,.33-1.91,4.37,4.37,0,0,1,.9-1.42,3.62,3.62,0,0,1,1.28-.88,4,4,0,0,1,1.49-.29,3.15,3.15,0,0,1,1.77.46,4.83,4.83,0,0,1,1.18,1.06V18h2V30Zm-.18-5.47a2.71,2.71,0,0,0-.54-.88,2.32,2.32,0,0,0-.8-.56,2.25,2.25,0,0,0-1-.2,2.38,2.38,0,0,0-1,.19,2.35,2.35,0,0,0-.79.55,2.56,2.56,0,0,0-.54.87,3.34,3.34,0,0,0-.19,1.17,3.28,3.28,0,0,0,.19,1.16,2.56,2.56,0,0,0,.54.87,2.39,2.39,0,0,0,1.75.76,2.42,2.42,0,0,0,1-.2,2.46,2.46,0,0,0,.8-.56,2.71,2.71,0,0,0,.54-.88,3.23,3.23,0,0,0,0-2.29Z"/><path class="cls-1" d="M139.25,30.2a6.3,6.3,0,0,1-.54,1.13,3,3,0,0,1-.62.75,2.27,2.27,0,0,1-.76.42,3.26,3.26,0,0,1-.93.13,4.21,4.21,0,0,1-1.11-.14,5.84,5.84,0,0,1-.94-.39l.67-1.49a3.46,3.46,0,0,0,.57.24,2,2,0,0,0,.6.09,1.12,1.12,0,0,0,.7-.21,2,2,0,0,0,.53-.79l-3.61-8.63h2.12l2.45,6.42,2.25-6.42h2.06Z"/><path class="cls-1" d="M149.42,30V18h2V30Z"/><path class="cls-1" d="M159.28,30V28.89a3.63,3.63,0,0,1-1.13.89,3.55,3.55,0,0,1-1.67.36A4.21,4.21,0,0,1,155.3,30a3.09,3.09,0,0,1-1-.51,2.52,2.52,0,0,1-.67-.84,2.47,2.47,0,0,1-.26-1.15v0a2.65,2.65,0,0,1,.27-1.23,2.34,2.34,0,0,1,.72-.87,3.5,3.5,0,0,1,1.12-.52,5.65,5.65,0,0,1,1.4-.17,7.21,7.21,0,0,1,1.33.1,7.14,7.14,0,0,1,1.06.26V24.8a1.72,1.72,0,0,0-.55-1.38,2.37,2.37,0,0,0-1.58-.47,5.72,5.72,0,0,0-1.31.14,8,8,0,0,0-1.16.4l-.54-1.59a9.94,9.94,0,0,1,1.47-.53,7.37,7.37,0,0,1,1.82-.19,3.86,3.86,0,0,1,2.87,1,3.68,3.68,0,0,1,.93,2.69V30Zm.05-3.67a5.34,5.34,0,0,0-.89-.25,6.31,6.31,0,0,0-1.09-.1,2.48,2.48,0,0,0-1.46.37,1.17,1.17,0,0,0-.52,1v0a1.07,1.07,0,0,0,.48.95,2.06,2.06,0,0,0,1.19.33,3.28,3.28,0,0,0,.91-.13,2.39,2.39,0,0,0,.73-.37,1.58,1.58,0,0,0,.48-.58,1.52,1.52,0,0,0,.17-.74Z"/><path class="cls-1" d="M170.86,18.49V30h-2V18.49Z"/><path class="cls-1" d="M175.71,30h-2V21.31h2v1.36a4.51,4.51,0,0,1,.47-.59,3.2,3.2,0,0,1,.59-.49,3.26,3.26,0,0,1,.73-.34,3.18,3.18,0,0,1,.91-.12,2.87,2.87,0,0,1,2.27.9,3.53,3.53,0,0,1,.8,2.42V30h-2v-4.9a2.32,2.32,0,0,0-.48-1.57,1.71,1.71,0,0,0-1.35-.54,1.86,1.86,0,0,0-1.4.56,2.19,2.19,0,0,0-.54,1.58Z"/><path class="cls-1" d="M185.87,30h-2V21.31h2v1.36a4.51,4.51,0,0,1,.47-.59,3.13,3.13,0,0,1,.58-.49,3.57,3.57,0,0,1,.74-.34,3.16,3.16,0,0,1,.9-.12,2.91,2.91,0,0,1,2.28.9,3.53,3.53,0,0,1,.8,2.42V30h-2v-4.9a2.32,2.32,0,0,0-.48-1.57A1.72,1.72,0,0,0,187.8,23a1.84,1.84,0,0,0-1.39.56,2.19,2.19,0,0,0-.54,1.58Z"/><path class="cls-1" d="M202.42,27.39a4.67,4.67,0,0,1-1,1.43,4.54,4.54,0,0,1-1.47,1,4.73,4.73,0,0,1-1.85.36,4.59,4.59,0,0,1-1.83-.35,4.41,4.41,0,0,1-1.46-1,4.31,4.31,0,0,1-.95-1.43,4.4,4.4,0,0,1-.35-1.74,4.49,4.49,0,0,1,.35-1.76,4.46,4.46,0,0,1,2.43-2.42,4.65,4.65,0,0,1,1.84-.36,4.79,4.79,0,0,1,1.84.35,4.49,4.49,0,0,1,1.46,1,4.39,4.39,0,0,1,1,1.43,4.47,4.47,0,0,1,.34,1.75A4.32,4.32,0,0,1,202.42,27.39Zm-1.84-2.81a2.82,2.82,0,0,0-.55-.89,2.49,2.49,0,0,0-.83-.6,2.45,2.45,0,0,0-1.06-.22,2.5,2.5,0,0,0-1.07.22,2.42,2.42,0,0,0-.82.59,2.7,2.7,0,0,0-.52.88,3.12,3.12,0,0,0-.18,1.07,3,3,0,0,0,.74,2,2.56,2.56,0,0,0,1.88.81,2.51,2.51,0,0,0,1.08-.22,2.46,2.46,0,0,0,.83-.59,2.88,2.88,0,0,0,.52-.88,3.12,3.12,0,0,0,.17-1.07A3,3,0,0,0,200.58,24.58Z"/><path class="cls-1" d="M210.28,21.31h2.08L208.82,30H207l-3.55-8.71h2.13l2.32,6.35Z"/><path class="cls-1" d="M218.93,30V28.89a3.88,3.88,0,0,1-1.13.89,3.6,3.6,0,0,1-1.68.36,4.21,4.21,0,0,1-1.18-.17,3.09,3.09,0,0,1-1-.51,2.52,2.52,0,0,1-.67-.84,2.47,2.47,0,0,1-.26-1.15v0a2.65,2.65,0,0,1,.27-1.23,2.27,2.27,0,0,1,.73-.87,3.35,3.35,0,0,1,1.11-.52,5.65,5.65,0,0,1,1.4-.17,7.4,7.4,0,0,1,1.34.1,7.32,7.32,0,0,1,1.05.26V24.8a1.72,1.72,0,0,0-.55-1.38,2.37,2.37,0,0,0-1.58-.47,5.72,5.72,0,0,0-1.31.14,8,8,0,0,0-1.16.4l-.54-1.59a9.94,9.94,0,0,1,1.47-.53,7.37,7.37,0,0,1,1.82-.19,3.84,3.84,0,0,1,2.87,1,3.68,3.68,0,0,1,.93,2.69V30Zm0-3.67a5.08,5.08,0,0,0-.89-.25,6.31,6.31,0,0,0-1.09-.1,2.48,2.48,0,0,0-1.46.37,1.19,1.19,0,0,0-.52,1v0a1.07,1.07,0,0,0,.48.95,2.08,2.08,0,0,0,1.19.33,3.28,3.28,0,0,0,.91-.13,2.39,2.39,0,0,0,.73-.37,1.58,1.58,0,0,0,.48-.58,1.52,1.52,0,0,0,.17-.74Z"/><path class="cls-1" d="M229.34,29.7a4.27,4.27,0,0,1-2.08.45,4.48,4.48,0,0,1-3.21-1.31,4.51,4.51,0,0,1-1.28-3.17,4.68,4.68,0,0,1,.34-1.76,4.78,4.78,0,0,1,.94-1.44,4.54,4.54,0,0,1,1.44-1,4.4,4.4,0,0,1,1.79-.36,4.54,4.54,0,0,1,2,.41,4.82,4.82,0,0,1,1.42,1.08L229.51,24a4.42,4.42,0,0,0-1-.78,2.46,2.46,0,0,0-1.27-.3,2.25,2.25,0,0,0-1,.22,2.37,2.37,0,0,0-.78.59,3,3,0,0,0-.71,1.95,3.26,3.26,0,0,0,.19,1.1,3,3,0,0,0,.53.89,2.53,2.53,0,0,0,.82.59,2.44,2.44,0,0,0,1.05.22,2.5,2.5,0,0,0,1.24-.3,4.52,4.52,0,0,0,1-.78l1.2,1.18A5.3,5.3,0,0,1,229.34,29.7Z"/><path class="cls-1" d="M232.64,20V18.1h2.14V20Zm.08,10V21.31h2V30Z"/><path class="cls-1" d="M245.68,27.39a4.42,4.42,0,0,1-2.43,2.4,4.69,4.69,0,0,1-1.85.36,4.63,4.63,0,0,1-1.83-.35,4.41,4.41,0,0,1-1.46-1,4.64,4.64,0,0,1-1-1.43,4.4,4.4,0,0,1-.35-1.74,4.64,4.64,0,0,1,1.32-3.21,4.64,4.64,0,0,1,3.3-1.33,4.79,4.79,0,0,1,1.84.35,4.49,4.49,0,0,1,1.46,1,4.39,4.39,0,0,1,1,1.43,4.47,4.47,0,0,1,.34,1.75A4.32,4.32,0,0,1,245.68,27.39Zm-1.84-2.81a3,3,0,0,0-.54-.89,2.6,2.6,0,0,0-.83-.6,2.71,2.71,0,0,0-2.14,0,2.42,2.42,0,0,0-.82.59,2.7,2.7,0,0,0-.52.88,3.12,3.12,0,0,0-.18,1.07,3,3,0,0,0,.2,1.09,2.8,2.8,0,0,0,.54.9,2.56,2.56,0,0,0,1.88.81,2.59,2.59,0,0,0,1.09-.22,2.42,2.42,0,0,0,.82-.59,2.88,2.88,0,0,0,.52-.88,3.12,3.12,0,0,0,.18-1.07A3,3,0,0,0,243.84,24.58Zm-3.19-4.37,1.73-2.69,1.8.81-2,1.88Z"/><path class="cls-1" d="M250.05,30h-2V21.31h2v1.36a5.46,5.46,0,0,1,.46-.59,3,3,0,0,1,1.33-.83,3.11,3.11,0,0,1,.9-.12A2.87,2.87,0,0,1,255,22a3.48,3.48,0,0,1,.8,2.42V30h-2v-4.9a2.32,2.32,0,0,0-.48-1.57A1.72,1.72,0,0,0,252,23a1.88,1.88,0,0,0-1.4.56,2.23,2.23,0,0,0-.53,1.58Z"/></g></g></svg>