<svg xmlns="http://www.w3.org/2000/svg" viewBox="0 0 193.98 32.53"><defs><style>.cls-1{fill:#fff;}</style></defs><g id="Layer_2" data-name="Layer 2"><g id="Capa_1" data-name="Capa 1"><path class="cls-1" d="M63.92,9h-.06L60.27,3.67v8.19h-2V.39h2.15l3.49,5.43L67.4.39h2.14V11.86h-2V3.64Z"/><path class="cls-1" d="M72.3,1.88V0h2.14V1.88Zm.08,10V3.21h2v8.65Z"/><path class="cls-1" d="M79,11.86H77V3.21h2V4.57A4.44,4.44,0,0,1,79.41,4,3.57,3.57,0,0,1,80,3.49a3,3,0,0,1,.73-.33,3.3,3.3,0,0,1,3.18.77,3.49,3.49,0,0,1,.8,2.43v5.5h-2V7a2.28,2.28,0,0,0-.48-1.56,1.67,1.67,0,0,0-1.35-.55,1.86,1.86,0,0,0-1.4.56A2.19,2.19,0,0,0,79,7Z"/><path class="cls-1" d="M87.14,1.88V0h2.14V1.88Zm.08,10V3.21h2v8.65Z"/><path class="cls-1" d="M97.72,10.5a2.34,2.34,0,0,1-.68.84,2.88,2.88,0,0,1-1,.51,4.38,4.38,0,0,1-1.27.17,5.77,5.77,0,0,1-1.89-.32,6.06,6.06,0,0,1-1.78-1L92,9.39a5.81,5.81,0,0,0,1.43.79,4,4,0,0,0,1.4.27,1.65,1.65,0,0,0,1-.25.8.8,0,0,0,.36-.68v0A.65.65,0,0,0,96,9.06a1.34,1.34,0,0,0-.43-.32,4.69,4.69,0,0,0-.62-.25l-.73-.22-1-.32a3.39,3.39,0,0,1-.86-.47,2.26,2.26,0,0,1-.63-.71,1.93,1.93,0,0,1-.25-1v0a2.45,2.45,0,0,1,.89-1.93,2.94,2.94,0,0,1,1-.53,3.87,3.87,0,0,1,1.2-.18,5.28,5.28,0,0,1,1.65.27,5.66,5.66,0,0,1,1.53.72L97,5.46a5.57,5.57,0,0,0-1.26-.6,3.58,3.58,0,0,0-1.18-.22,1.45,1.45,0,0,0-.89.24.74.74,0,0,0-.32.62v0a.57.57,0,0,0,.16.4,1.71,1.71,0,0,0,.44.31,4.64,4.64,0,0,0,.62.26l.73.24c.31.1.63.21,1,.34a4.26,4.26,0,0,1,.86.49,2.6,2.6,0,0,1,.63.69,2,2,0,0,1,.24,1v0A2.79,2.79,0,0,1,97.72,10.5Z"/><path class="cls-1" d="M102.22,9.15a1.09,1.09,0,0,0,.28.83,1.14,1.14,0,0,0,.79.26,2.72,2.72,0,0,0,1.23-.3v1.63a3.18,3.18,0,0,1-.81.32,3.6,3.6,0,0,1-1,.12,4,4,0,0,1-1-.13,2,2,0,0,1-.8-.43,1.88,1.88,0,0,1-.52-.78,3.27,3.27,0,0,1-.19-1.21V4.9H99.13V3.21h1.09V.84h2V3.21h2.33V4.9h-2.33Z"/><path class="cls-1" d="M108.64,9.87a2.46,2.46,0,0,0,1.64.56,2.84,2.84,0,0,0,1.28-.26,4,4,0,0,0,1.06-.77l1.17,1a4.68,4.68,0,0,1-1.48,1.18,4.41,4.41,0,0,1-2.06.45,4.66,4.66,0,0,1-1.75-.33,4.06,4.06,0,0,1-1.4-.92,4.17,4.17,0,0,1-.95-1.42,4.9,4.9,0,0,1-.34-1.84,4.85,4.85,0,0,1,.31-1.75A4.35,4.35,0,0,1,107,4.37a4.18,4.18,0,0,1,1.33-1A4,4,0,0,1,110,3a4.15,4.15,0,0,1,1.81.38,3.79,3.79,0,0,1,1.29,1,4.7,4.7,0,0,1,.78,1.49,6.25,6.25,0,0,1,.26,1.79,2.26,2.26,0,0,1,0,.26c0,.09,0,.18,0,.28h-6.36A2.66,2.66,0,0,0,108.64,9.87Zm3.58-2.94A3.63,3.63,0,0,0,112,6a2.18,2.18,0,0,0-.44-.72,2.11,2.11,0,0,0-.66-.49,2.07,2.07,0,0,0-.88-.18,2,2,0,0,0-1.52.63,2.85,2.85,0,0,0-.72,1.65Z"/><path class="cls-1" d="M118.18,11.86h-2V3.21h2v2a3.74,3.74,0,0,1,1.16-1.57,2.72,2.72,0,0,1,1.9-.54V5.14h-.11a3.09,3.09,0,0,0-1.2.22A2.39,2.39,0,0,0,119,6a2.73,2.73,0,0,0-.61,1.07,4.85,4.85,0,0,0-.21,1.5Z"/><path class="cls-1" d="M123,1.88V0h2.14V1.88Zm.08,10V3.21h2v8.65Z"/><path class="cls-1" d="M136,9.29a4.5,4.5,0,0,1-1,1.43,4.56,4.56,0,0,1-1.47,1,4.88,4.88,0,0,1-3.68,0,4.37,4.37,0,0,1-1.45-1,4.5,4.5,0,0,1-1-1.43,4.49,4.49,0,0,1,0-3.5,4.43,4.43,0,0,1,1-1.44A4.6,4.6,0,0,1,131.77,3a4.87,4.87,0,0,1,1.85.35,4.56,4.56,0,0,1,1.45,1,4.48,4.48,0,0,1,1.31,3.19A4.32,4.32,0,0,1,136,9.29Zm-1.84-2.8a2.92,2.92,0,0,0-.54-.9,2.76,2.76,0,0,0-.83-.6,2.71,2.71,0,0,0-2.14,0,2.45,2.45,0,0,0-.82.6,2.55,2.55,0,0,0-.52.87,3.18,3.18,0,0,0-.18,1.08,3,3,0,0,0,.2,1.08,2.7,2.7,0,0,0,.54.9,2.76,2.76,0,0,0,.83.6,2.6,2.6,0,0,0,1.05.22,2.72,2.72,0,0,0,1.09-.22,2.53,2.53,0,0,0,1.34-1.48,3.12,3.12,0,0,0,.18-1.07A3,3,0,0,0,134.18,6.49Z"/><path class="cls-1" d="M7,29.86V28.42a4.65,4.65,0,0,1-1.19,1.15A3.14,3.14,0,0,1,4,30a4,4,0,0,1-1.48-.29,3.72,3.72,0,0,1-1.28-.88,4.54,4.54,0,0,1-.9-1.42A4.93,4.93,0,0,1,0,25.54a5.18,5.18,0,0,1,.33-1.92,4.37,4.37,0,0,1,.9-1.42,3.47,3.47,0,0,1,1.28-.87A3.85,3.85,0,0,1,4,21a3.15,3.15,0,0,1,1.77.46A4.83,4.83,0,0,1,7,22.55V17.9h2v12Zm-.18-5.47a2.71,2.71,0,0,0-.54-.88,2.46,2.46,0,0,0-.8-.56,2.42,2.42,0,0,0-.95-.2,2.38,2.38,0,0,0-1,.19,2.35,2.35,0,0,0-.79.55,2.56,2.56,0,0,0-.54.87A3.36,3.36,0,0,0,2,25.54a3.23,3.23,0,0,0,.19,1.15,2.61,2.61,0,0,0,.54.88,2.5,2.5,0,0,0,.79.55,2.39,2.39,0,0,0,1,.2,2.42,2.42,0,0,0,.95-.2,2.46,2.46,0,0,0,.8-.56,2.71,2.71,0,0,0,.54-.88,3.23,3.23,0,0,0,0-2.29Z"/><path class="cls-1" d="M13.78,27.87a2.41,2.41,0,0,0,1.63.56,2.81,2.81,0,0,0,1.28-.26,4,4,0,0,0,1.07-.77l1.16,1a4.68,4.68,0,0,1-1.48,1.18,4.41,4.41,0,0,1-2.06.45,4.57,4.57,0,0,1-1.74-.33,4.2,4.2,0,0,1-1.41-.92,4.15,4.15,0,0,1-.94-1.42,4.71,4.71,0,0,1-.35-1.84,5.07,5.07,0,0,1,.31-1.75,4.35,4.35,0,0,1,.88-1.43,4.29,4.29,0,0,1,1.33-1A4,4,0,0,1,15.17,21a4.12,4.12,0,0,1,1.81.38,3.7,3.7,0,0,1,1.29,1,4.33,4.33,0,0,1,.78,1.49,5.92,5.92,0,0,1,.26,1.79,2.26,2.26,0,0,1,0,.26c0,.09,0,.18,0,.28H12.92A2.62,2.62,0,0,0,13.78,27.87Zm3.57-2.94a3.63,3.63,0,0,0-.22-.89,2.18,2.18,0,0,0-.44-.72,1.9,1.9,0,0,0-.66-.49,2.07,2.07,0,0,0-.88-.18,2,2,0,0,0-1.51.63,2.86,2.86,0,0,0-.73,1.65Z"/><path class="cls-1" d="M35.5,28.87a5.48,5.48,0,0,1-1,.64,5,5,0,0,1-1.22.41,7.31,7.31,0,0,1-1.46.14,5.94,5.94,0,0,1-2.33-.46,5.63,5.63,0,0,1-1.84-1.26,5.56,5.56,0,0,1-1.22-1.87A6,6,0,0,1,26,24.14a6.12,6.12,0,0,1,.43-2.31,5.85,5.85,0,0,1,1.22-1.89,5.71,5.71,0,0,1,1.87-1.28,6,6,0,0,1,2.39-.46,7,7,0,0,1,1.43.13,5.92,5.92,0,0,1,1.19.37,5.72,5.72,0,0,1,1,.56,7.56,7.56,0,0,1,.87.72l-1.3,1.49a6.41,6.41,0,0,0-1.45-1,3.86,3.86,0,0,0-1.76-.39,3.47,3.47,0,0,0-1.51.32,3.64,3.64,0,0,0-1.21.87,3.86,3.86,0,0,0-.78,1.28,4.36,4.36,0,0,0-.28,1.59,4.45,4.45,0,0,0,.28,1.6,4,4,0,0,0,.78,1.3,3.81,3.81,0,0,0,1.21.88,3.62,3.62,0,0,0,1.51.32,3.81,3.81,0,0,0,1.81-.41,7.05,7.05,0,0,0,1.49-1.09L36.43,28A7.35,7.35,0,0,1,35.5,28.87Z"/><path class="cls-1" d="M44,21.21h2v8.65H44V28.5a4.38,4.38,0,0,1-1.06,1.09,2.75,2.75,0,0,1-1.63.45,2.87,2.87,0,0,1-2.27-.9,3.49,3.49,0,0,1-.8-2.43v-5.5h2v4.9a2.28,2.28,0,0,0,.48,1.56,1.69,1.69,0,0,0,1.36.55,1.88,1.88,0,0,0,1.4-.56A2.23,2.23,0,0,0,44,26.08Z"/><path class="cls-1" d="M48.58,29.86v-12h2v12Z"/><path class="cls-1" d="M55.56,27.15a1.09,1.09,0,0,0,.28.83,1.14,1.14,0,0,0,.79.26,2.72,2.72,0,0,0,1.23-.3v1.63a3.34,3.34,0,0,1-.81.32,3.6,3.6,0,0,1-1,.12,4,4,0,0,1-1-.13,2,2,0,0,1-.8-.43,1.88,1.88,0,0,1-.52-.78,3.27,3.27,0,0,1-.19-1.21V22.9H52.47V21.21h1.09V18.84h2v2.37h2.33V22.9H55.56Z"/><path class="cls-1" d="M65.54,21.21h2v8.65h-2V28.5a4.57,4.57,0,0,1-1.06,1.09,2.79,2.79,0,0,1-1.64.45,2.89,2.89,0,0,1-2.27-.9,3.54,3.54,0,0,1-.8-2.43v-5.5h2v4.9a2.28,2.28,0,0,0,.48,1.56,1.69,1.69,0,0,0,1.36.55A1.84,1.84,0,0,0,65,27.66a2.19,2.19,0,0,0,.54-1.58Z"/><path class="cls-1" d="M72,29.86H70V21.21h2v1.95a3.84,3.84,0,0,1,1.17-1.57,2.7,2.7,0,0,1,1.9-.54v2.09H75a3.07,3.07,0,0,0-1.19.22,2.5,2.5,0,0,0-.94.64,2.85,2.85,0,0,0-.6,1.07,4.84,4.84,0,0,0-.22,1.5Z"/><path class="cls-1" d="M81.67,29.86V28.79a3.63,3.63,0,0,1-1.13.89,3.55,3.55,0,0,1-1.67.36,4.16,4.16,0,0,1-1.18-.17,3.09,3.09,0,0,1-1-.51,2.48,2.48,0,0,1-.67-.83,2.54,2.54,0,0,1-.26-1.16v0a2.79,2.79,0,0,1,.26-1.23,2.47,2.47,0,0,1,.73-.87,3.4,3.4,0,0,1,1.12-.52,5.65,5.65,0,0,1,1.4-.17,8.21,8.21,0,0,1,1.33.1,8.64,8.64,0,0,1,1.06.26V24.7a1.72,1.72,0,0,0-.55-1.38,2.38,2.38,0,0,0-1.58-.47,5.19,5.19,0,0,0-1.31.15,7.91,7.91,0,0,0-1.16.39l-.54-1.59A8.87,8.87,0,0,1,78,21.28a7.33,7.33,0,0,1,1.82-.2,3.86,3.86,0,0,1,2.87,1,3.71,3.71,0,0,1,.93,2.69v5.13Zm0-3.67a4.56,4.56,0,0,0-.89-.24,5.45,5.45,0,0,0-1.09-.1,2.56,2.56,0,0,0-1.46.36,1.17,1.17,0,0,0-.52,1v0a1.07,1.07,0,0,0,.48.95,2.06,2.06,0,0,0,1.19.33,2.94,2.94,0,0,0,.91-.13,2.39,2.39,0,0,0,.73-.37,1.74,1.74,0,0,0,.48-.57,1.59,1.59,0,0,0,.17-.75Z"/><path class="cls-1" d="M95.53,30.11A7,7,0,0,1,95,31.24a2.87,2.87,0,0,1-.62.74,2.27,2.27,0,0,1-.76.42,2.94,2.94,0,0,1-.93.13,4.08,4.08,0,0,1-1.1-.14,4.32,4.32,0,0,1-1-.39l.68-1.48a3.88,3.88,0,0,0,.56.23,2,2,0,0,0,.6.09,1.12,1.12,0,0,0,.7-.21,1.94,1.94,0,0,0,.53-.78l-3.61-8.64h2.12l2.45,6.42,2.25-6.42H99Z"/><path class="cls-1" d="M114.34,24a3.49,3.49,0,0,1-1,1.22,4.39,4.39,0,0,1-1.46.75,6.15,6.15,0,0,1-1.79.25h-2.28v3.69h-2V18.39h4.52a5.69,5.69,0,0,1,1.81.27,3.88,3.88,0,0,1,1.38.78,3.47,3.47,0,0,1,.86,1.21,4.24,4.24,0,0,1,0,3.3ZM112,20.73a2.88,2.88,0,0,0-1.81-.52h-2.35v4.15h2.35a2.69,2.69,0,0,0,1.81-.57,2.08,2.08,0,0,0,0-3.06Z"/><path class="cls-1" d="M121.66,29.86V28.79a3.75,3.75,0,0,1-1.13.89,3.58,3.58,0,0,1-1.67.36,4.1,4.1,0,0,1-1.18-.17,3.15,3.15,0,0,1-1-.51,2.48,2.48,0,0,1-.67-.83,2.54,2.54,0,0,1-.25-1.16v0a2.65,2.65,0,0,1,.26-1.23,2.37,2.37,0,0,1,.73-.87,3.35,3.35,0,0,1,1.11-.52,5.65,5.65,0,0,1,1.4-.17,8.34,8.34,0,0,1,1.34.1,8.48,8.48,0,0,1,1,.26V24.7a1.75,1.75,0,0,0-.54-1.38,2.4,2.4,0,0,0-1.58-.47,5.27,5.27,0,0,0-1.32.15,7.91,7.91,0,0,0-1.16.39l-.54-1.59a8.67,8.67,0,0,1,1.48-.52,7.24,7.24,0,0,1,1.81-.2,3.84,3.84,0,0,1,2.87,1,3.71,3.71,0,0,1,.93,2.69v5.13Zm0-3.67a4.48,4.48,0,0,0-.9-.24,5.35,5.35,0,0,0-1.08-.1,2.54,2.54,0,0,0-1.46.36,1.17,1.17,0,0,0-.53,1v0a1.06,1.06,0,0,0,.49.95,2,2,0,0,0,1.18.33,2.94,2.94,0,0,0,.91-.13,2.39,2.39,0,0,0,.73-.37,1.77,1.77,0,0,0,.49-.57,1.72,1.72,0,0,0,.17-.75Z"/><path class="cls-1" d="M128.31,27.15a1.05,1.05,0,0,0,.28.83,1.1,1.1,0,0,0,.78.26,2.66,2.66,0,0,0,1.23-.3v1.63a3.26,3.26,0,0,1-.8.32,3.6,3.6,0,0,1-1,.12,4,4,0,0,1-1-.13,2.14,2.14,0,0,1-.8-.43,2,2,0,0,1-.52-.78,3.51,3.51,0,0,1-.18-1.21V22.9h-1.1V21.21h1.1V18.84h2v2.37h2.33V22.9h-2.33Z"/><path class="cls-1" d="M134.61,29.86h-2V21.21h2v1.95a3.84,3.84,0,0,1,1.17-1.57,2.7,2.7,0,0,1,1.9-.54v2.09h-.12a3.07,3.07,0,0,0-1.19.22,2.5,2.5,0,0,0-.94.64,2.85,2.85,0,0,0-.6,1.07,4.84,4.84,0,0,0-.22,1.5Z"/><path class="cls-1" d="M139.41,19.88V18h2.15v1.88Zm.09,10V21.21h2v8.65Z"/><path class="cls-1" d="M152.51,21.45a3.27,3.27,0,0,1,1.7-.42,2.88,2.88,0,0,1,2.22.86,3.43,3.43,0,0,1,.81,2.45v5.52h-2V25a2.34,2.34,0,0,0-.46-1.57,1.58,1.58,0,0,0-1.29-.54,1.74,1.74,0,0,0-1.33.55,2.23,2.23,0,0,0-.51,1.59v4.87h-2V24.94a2.37,2.37,0,0,0-.45-1.55,1.61,1.61,0,0,0-1.29-.54,1.7,1.7,0,0,0-1.34.57,2.3,2.3,0,0,0-.51,1.59v4.85h-2V21.21h2v1.33c.15-.2.3-.39.46-.57a4.51,4.51,0,0,1,.57-.48,2.64,2.64,0,0,1,.72-.33,2.77,2.77,0,0,1,.89-.13,2.7,2.7,0,0,1,2.57,1.54A4.26,4.26,0,0,1,152.51,21.45Z"/><path class="cls-1" d="M168,27.29a4.5,4.5,0,0,1-1,1.43,4.56,4.56,0,0,1-1.47,1,4.69,4.69,0,0,1-1.85.36,4.63,4.63,0,0,1-1.83-.36,4.27,4.27,0,0,1-1.45-1,4.5,4.5,0,0,1-1-1.43,4.56,4.56,0,0,1,1-4.94,4.6,4.6,0,0,1,3.3-1.34,4.87,4.87,0,0,1,1.85.35,4.56,4.56,0,0,1,1.45,1,4.48,4.48,0,0,1,1.31,3.19A4.32,4.32,0,0,1,168,27.29Zm-1.84-2.8a2.92,2.92,0,0,0-.54-.9,2.76,2.76,0,0,0-.83-.6,2.71,2.71,0,0,0-2.14,0,2.45,2.45,0,0,0-.82.6,2.55,2.55,0,0,0-.52.87,3.18,3.18,0,0,0-.18,1.08,3,3,0,0,0,.2,1.08,2.7,2.7,0,0,0,.54.9,2.76,2.76,0,0,0,.83.6,2.6,2.6,0,0,0,1.05.22,2.67,2.67,0,0,0,1.08-.22,2.53,2.53,0,0,0,.83-.6,2.77,2.77,0,0,0,.52-.88,3.12,3.12,0,0,0,.18-1.07A3,3,0,0,0,166.18,24.49Z"/><path class="cls-1" d="M172.39,29.86h-2V21.21h2v1.36a5.46,5.46,0,0,1,.46-.59,3.57,3.57,0,0,1,.59-.49,3.09,3.09,0,0,1,.74-.33,2.79,2.79,0,0,1,.9-.13,2.87,2.87,0,0,1,2.27.9,3.49,3.49,0,0,1,.8,2.43v5.5h-2V25a2.28,2.28,0,0,0-.48-1.56,1.69,1.69,0,0,0-1.36-.55,1.84,1.84,0,0,0-1.39.56,2.19,2.19,0,0,0-.54,1.58Z"/><path class="cls-1" d="M180.58,19.88V18h2.15v1.88Zm.08,10V21.21h2v8.65Z"/><path class="cls-1" d="M193.63,27.29a4.7,4.7,0,0,1-1,1.43,4.56,4.56,0,0,1-1.47,1,4.66,4.66,0,0,1-1.85.36,4.58,4.58,0,0,1-1.82-.36,4.31,4.31,0,0,1-1.46-1,4.5,4.5,0,0,1-1-1.43,4.61,4.61,0,0,1,0-3.5,4.48,4.48,0,0,1,2.42-2.42,4.69,4.69,0,0,1,1.85-.36,4.82,4.82,0,0,1,1.84.35,4.6,4.6,0,0,1,1.46,1,4.5,4.5,0,0,1,1,1.43,4.68,4.68,0,0,1,.34,1.76A4.48,4.48,0,0,1,193.63,27.29Zm-1.85-2.8a2.92,2.92,0,0,0-.54-.9,2.64,2.64,0,0,0-.83-.6,2.5,2.5,0,0,0-1.07-.22,2.45,2.45,0,0,0-1.06.22,2.49,2.49,0,0,0-.83.6,2.72,2.72,0,0,0-.52.87,3.18,3.18,0,0,0-.17,1.08,3,3,0,0,0,.19,1.08,2.57,2.57,0,0,0,.55.9,2.64,2.64,0,0,0,.83.6,2.6,2.6,0,0,0,1,.22,2.67,2.67,0,0,0,1.08-.22,2.53,2.53,0,0,0,1.34-1.48,3.12,3.12,0,0,0,.18-1.07A2.8,2.8,0,0,0,191.78,24.49Z"/></g></g></svg>